<svg xmlns="http://www.w3.org/2000/svg" viewBox="0 0 570 119">
  <path d="M563.592 13c-1.067.828-2.488 1.065-4.386 1.065-3.91 0-9.595-3.318-12.202-6.99l2.725-2.014c2.96 3.2 7.346 6.517 13.862 7.347V13zm-23.104 71.32l-3.2 1.896c0-27.605 0-53.432-.237-71.795l3.438-2.607c.354 28.317.118 53.314 0 72.508zM551.39.796c-7.347 5.332-14.93 10.664-22.513 15.758V38.35l-5.685-.117v6.398l5.685-.236v42.532c0 11.612-.236 22.037-1.185 30.33l8.414-3.2c.827-6.16 1.42-13.74 1.303-20.14l6.988-4.62.472-45.02 7.583.355.355-7.344-7.938.474.237-19.312c3.555 2.015 6.283 2.607 9.717 2.607 4.736 0 10.185-4.027 14.335-9.715v-1.067c-6.993-.59-13.51-4.5-17.77-9.478zM513.12 85.86l-6.158-6.516v-34.83c-3.913-2.133-7.94-4.503-11.85-7.11l2.606-1.896c3.913 2.607 8.296 5.095 12.44 7.464-.235 11.73-.235 21.68-.235 35.07l5.45 5.45-2.253 2.368zm-14.926-4.264l-6.162-4.74V45.46l6.162 4.384v31.752zm-5.33 4.5l-7.82-6.278c0-11.61-.236-23.102-.477-34.713l3.438-2.487v35.896l7.465 5.687-2.607 1.897zm25.115-5.33l-4.147-4.383c-.118-9.36-.118-18.838.236-28.435l4.622-3.435v-5.095l-1.898-1.895-3.792 2.843c-4.736-2.725-9.477-5.57-14.213-8.767-7.47 5.686-15.05 11.136-22.75 16.11.354 11.493.472 22.986.354 34.477l-.945 2.014c5.093 3.556 10.425 7.347 15.043 11.02 3.91-3.082 7.937-6.4 11.847-9.004 3.437 2.96 6.634 6.397 9.595 9.36 3.792-3.792 7.47-7.464 11.257-11.02v-5.095l-2.012-1.894-3.2 3.2zm-54.855 5.094l-6.158-6.516v-34.83c-3.91-2.133-7.937-4.503-11.847-7.11l2.606-1.896c3.91 2.607 8.292 5.095 12.438 7.464-.236 11.73-.236 21.68-.236 35.07l5.45 5.45-2.253 2.368zM448.2 81.596l-6.163-4.74V45.46l6.162 4.384v31.752zm-5.332 4.5l-7.82-6.278c0-11.61-.236-23.102-.472-34.713l3.433-2.487v35.896l7.464 5.687-2.606 1.897zm25.116-5.33l-4.146-4.383c-.118-9.36-.118-18.838.236-28.435l4.622-3.435v-5.095l-1.897-1.895-3.79 2.843c-4.74-2.725-9.48-5.57-14.217-8.767-7.465 5.686-15.048 11.136-22.75 16.11.36 11.493.473 22.986.36 34.477l-.95 2.014c5.095 3.556 10.426 7.347 15.045 11.02 3.91-3.082 7.937-6.4 11.847-9.004 3.437 2.96 6.634 6.397 9.6 9.36 3.787-3.792 7.464-7.464 11.255-11.02v-5.095l-2.015-1.894-3.2 3.2zm-63.977 4.74l-5.09-4.267V42.024l-3.556-3.79 2.726-2.015 3.91 4.62v39.096l4.385 3.318-2.373 2.25zm10.662-49.76l4.15 4.857-2.37 1.777-4.265-4.858 2.484-1.776zM409.1 80.53l-3.08-2.37c-.117-11.493-.117-23.103 0-34.714l8.175 8.65 13.15-9.36V37.64l-1.775-2.132-3.792 2.844-5.922-6.87-10.19 7.344-6.16-7.227c-5.45 3.908-10.9 7.7-16.586 11.61l2.488 3.435 3.078-2.25 1.66 2.25c.237 11.256.475 22.984.237 34.24l-2.014 2.723c5.097 3.91 9.952 7.702 14.574 11.61 4.146-4.145 8.532-8.29 12.914-12.438v-5.094l-1.897-1.777-4.858 4.62zm-29.377 15.993c0 1.304 0 2.133-.475 3.555l-1.304.71v-2.015c0-9.714-8.765-10.543-8.765-23.102V44.514c-3.91-2.132-7.7-4.385-11.61-6.754l2.724-2.253c3.91 2.49 7.82 4.978 11.965 7.465v31.87c0 11.61 7.465 12.32 7.465 21.68zm-19.076-14.81l-6.28-4.857V45.934l6.28 3.318v32.46zm-5.568 4.503l-7.702-6.398c0-11.018 0-23.695-.472-34.477l3.436-2.486v35.78l7.46 5.687-2.722 1.896zm4.62 22.747c-2.013-2.844-6.515-5.214-11.255-4.858v-.356c1.184-.83 2.962-1.185 4.857-1.185 4.03 0 7.228 1.54 9.597 4.975l-3.198 1.423zM376.17 47.95l4.503-3.437V39.42l-1.66-1.896-3.79 2.843c-4.62-2.725-9.36-5.57-13.98-8.768-7.464 5.45-15.758 11.136-23.458 16.35 1.065 10.78 1.184 22.982.948 34.12l-.83 2.13 15.164 11.02 10.78-7.702c1.424 6.28 8.295 7.583 8.295 11.73 0 2.487-1.304 4.028-2.25 4.857-.83.592-1.778.947-2.963 1.42-2.253-3.434-6.16-6.633-12.915-6.633-9.834 0-14.573 7.227-16.113 14.454 1.54-.355 3.792-.59 5.57-.59 3.908 0 9.24 1.774 12.32 5.92 2.845-1.538 5.213-2.486 10.19-4.264 10.9-4.147 17.533-7.82 17.533-16.468v-1.066c0-10.19-7.345-12.32-7.345-21.088V47.95zm-48.928 6.87c-2.724-5.567-5.687-11.018-8.886-16.35l2.844-2.014c3.2 5.568 6.28 11.138 9.242 16.706l-3.2 1.658zm-13.385 6.754V46.527c2.012 3.79 3.907 7.7 5.686 11.847l-5.686 3.2zm2.25 22.036l-2.49 2.13-6.87-6.515c.236-9.24 0-22.746-.712-32.106l3.79-2.845v34.002l6.28 5.333zm-18.364-34.478c.828 9.835.828 21.8.593 31.752l-.947 2.132 14.807 12.323 17.416-13.982v-4.976l-2.015-2.37-8.41 7.11-5.33-4.977V68.68l20.257-11.49v-5.095c-3.555-6.872-7.228-13.624-11.256-20.496-8.295 6.16-16.586 12.084-25.117 17.532zm-13.86 36.372l-4.858-3.908V16.908c0-4.74-.947-7.462-2.96-9.36l2.37-1.895c2.485 2.25 3.433 5.45 3.433 11.255V80.41l4.504 3.08-2.488 2.014zm5.332-4.857l-3.2-2.37V15.013c0-6.514-1.657-10.544-6.042-13.386l-13.268 9.12c2.487 2.253 3.672 4.504 3.672 8.887V80.53l-1.777 2.96 14.69 11.848 12.324-12.084V78.16l-1.78-1.896-4.62 4.383zM259.007 54.82c-2.726-5.567-5.688-11.018-8.887-16.35l2.844-2.014c3.2 5.568 6.28 11.138 9.242 16.706l-3.2 1.658zm-13.387 6.754V46.527c2.013 3.79 3.91 7.7 5.686 11.847l-5.686 3.2zm2.25 22.036l-2.488 2.13-6.87-6.515c.236-9.24 0-22.746-.712-32.106l3.79-2.845v34.002l6.28 5.333zm-18.363-34.478c.83 9.835.83 21.8.593 31.752l-.948 2.132 14.81 12.323 17.414-13.982v-4.976l-2.014-2.37-8.41 7.11-5.332-4.977V68.68l20.258-11.49v-5.095c-3.554-6.872-7.227-13.624-11.255-20.496-8.293 6.16-16.586 12.084-25.116 17.532zm-36.725-36.844c-6.043-2.37-11.373-4.266-17.298-4.266-5.805 0-9.95 1.303-12.913 3.2l-.355-.357c1.778-2.723 7.582-6.634 14.928-6.634 6.28 0 11.73 2.016 17.178 4.267 5.688 2.368 11.14 4.858 17.89 4.858 3.557 0 6.635-.712 9.243-2.726l.355.473c-1.66 3.674-5.213 6.28-10.19 6.28-6.397 0-12.44-2.606-18.836-5.095zM211.5 74.96l.237.593c-3.435 3.91-9.833 8.056-19.785 8.056-18.245 0-31.632-12.678-31.632-30.686 0-10.425 4.858-19.784 11.492-25.235l.593.474c-.83 1.065-1.66 2.25-2.488 3.553l-.238.475c-3.436 5.805-5.333 12.558-5.333 19.074 0 17.415 13.98 28.67 29.264 28.67 7.702 0 13.388-1.896 17.89-4.975zm-31.87-4.146c-6.16-4.147-10.188-11.255-10.188-20.258 0-4.977.712-9.598 2.37-13.863 3.08-.948 6.28-1.895 9.48-3.08.354 11.137-.713 27.132-1.66 37.2zm15.52-24.05c0 8.174-1.42 14.81-5.685 18.955 1.303-11.847 1.303-23.814 1.303-35.543 1.422-.592 2.843-1.067 4.383-1.658v18.244zm3.91-21.562c1.896.356 3.674.59 5.45.59.475 15.996.475 31.99 0 47.866-2.96.947-6.515 1.54-10.543 1.54-3.2 0-6.28-.593-9.123-1.658 10.19-4.03 14.335-10.426 14.335-27.013 0-6.398.12-14.69-.12-21.325zm-14.926-4.62c1.184.472 2.37.83 3.67 1.303 1.896.71 3.792 1.303 5.688 1.895-6.16 2.37-12.2 4.502-18.363 6.397 2.25-3.435 5.212-6.635 9.004-9.596zm33.29 1.42l1.778-1.183c5.686-4.03 8.53-10.31 8.766-16.943l-1.54-.712c-2.25 3.437-6.87 6.16-12.913 6.16s-11.61-2.13-17.18-4.264C190.77 2.81 185.2.56 179.158.56c-18.6 0-26.064 12.083-26.064 20.732 0 4.266 1.067 7.582 2.844 10.662l4.738-2.844c-.71-1.183-1.303-2.842-1.303-5.212 0-3.79 4.266-6.87 9.952-6.87 3.08 0 6.16.71 9.596 1.776-15.638 8.056-28.315 22.273-28.315 40.874 0 21.56 16.942 35.66 35.66 35.66 19.904-.12 31.988-13.387 36.372-27.723 1.422-4.62 2.607-10.663 2.607-15.4l-1.778-.24c-2.725 7.348-6.28 13.982-12.202 18.247-.593-13.744-.593-28.908 0-45.258 2.014-.592 4.146-1.54 6.16-2.96zm-94.66 32.818c-2.723-5.567-5.686-11.018-8.883-16.35l2.844-2.014c3.198 5.568 6.28 11.138 9.24 16.706l-3.2 1.658zm-13.385 6.754V46.527c2.012 3.79 3.907 7.7 5.685 11.847l-5.686 3.2zm2.25 22.036l-2.488 2.13-6.87-6.515c.235-9.24 0-22.746-.713-32.106l3.79-2.845v34.002l6.28 5.333zM93.265 49.132c.83 9.835.83 21.8.593 31.752l-.947 2.132 14.81 12.323 17.416-13.982v-4.976l-2.015-2.37-8.41 7.11-5.33-4.977V68.68l20.257-11.49v-5.095c-3.554-6.872-7.226-13.624-11.255-20.496-8.293 6.16-16.586 12.084-25.117 17.532zm-12.438-12.44C69.335 19.99 50.973 8.853 34.267 8.853c-10.78 0-21.087 6.4-21.087 16.35 0 1.54.473 2.605.71 3.554l-.71.118c-.83-1.067-1.896-3.554-1.896-6.634.118-9.478 10.426-17.18 22.984-17.18 19.784 0 37.675 11.968 47.27 31.278l-.71.355zm-33.764 2.37l.71-.354c5.095 7.345 9.36 12.558 9.36 19.43 0 6.28-4.265 10.542-10.307 11.018l-.238-.355c5.57-2.133 6.99-5.45 6.99-11.018 0-6.16-3.91-13.744-6.515-18.72zM64.716 79.7c-7.82-.83-14.454-2.843-20.733-4.74 9.596-1.66 17.652-8.293 17.652-16.705 0-15.875-18.837-24.642-18.126-37.318 15.4 4.974 34.238 20.97 34.238 39.214 0 9.834-2.844 16.825-13.032 19.55zm-6.28 6.634c-13.388 0-21.918-6.28-39.452-6.28-2.606 0-5.213.356-6.87.712l-.12-.356c2.726-2.606 6.99-4.027 13.033-4.027 14.1 0 23.695 6.99 38.86 6.99 1.776 0 4.027-.238 5.33-.475l.118.476c-1.302 1.065-5.804 2.96-10.9 2.96zM34.386.56C17.447.56 4.175 10.63 4.175 23.307c0 11.135 6.872 18.48 19.075 23.22l5.45-4.74c-4.503-1.776-8.294-5.45-10.07-11.61 1.776-7.82 8.292-10.9 15.875-10.9 1.066 0 2.252.12 3.317.238-1.66 2.488-3.08 5.568-3.08 10.307 0 10.9 9.24 16.468 9.24 29.737 0 1.54-.236 2.96-.59 5.094-1.423.59-2.37.71-3.2.71-5.332 0-8.294-4.027-8.294-8.65 0-4.738 1.303-7.46 3.198-9.002L32.49 45.58c-5.093 4.5-8.41 8.528-8.41 15.638 0 4.146 1.895 7.938 4.857 10.544-1.067-.12-2.252-.12-3.436-.12-15.756 0-26.538 8.65-25.234 23.697l.948.354c3.08-3.555 7.108-5.214 12.203-5.214 13.15 0 26.418 5.45 36.015 5.45 12.322 0 23.103-6.04 29.382-13.742 6.398-7.7 9.715-17.534 9.715-28.316C88.53 23.78 64.36.56 34.386.56z" fill="#202223" />
</svg>
